<svg xmlns="http://www.w3.org/2000/svg" viewBox="0 0 44 64">
  <mask id="holes">
    <rect width="44" height="64" fill="#fff" />
    <ellipse cx="13" cy="17" rx="3.2" ry="6.5" transform="rotate(-25 13 17)" fill="#000" />
    <ellipse cx="30" cy="23" rx="3.4" ry="7" transform="rotate(22 30 23)" fill="#000" />
    <ellipse cx="11" cy="35" rx="2.8" ry="5.5" transform="rotate(-12 11 35)" fill="#000" />
    <ellipse cx="27" cy="41" rx="2.4" ry="5" transform="rotate(15 27 41)" fill="#000" />
  </mask>

  <path
    fill="#3f6b47"
    mask="url(#holes)"
    d="
      M22 3
      C 33 4 41 14 41 26
      C 41 40 34 51 24 57
      C 23 58 21 58 20 57
      C 10 51 3 40 3 26
      C 3 14 11 4 22 3
      Z
    "
  />
  <path
    d="M22 57 C 21 60 19 62 16 63.5"
    stroke="#3f6b47"
    stroke-width="2.5"
    stroke-linecap="round"
    fill="none"
  />
</svg>
